<svg xmlns="http://www.w3.org/2000/svg" viewBox="0 0 800 450">
  <!-- Background -->
  <rect width="800" height="450" fill="#080808"/>

  <!-- Browser window -->
  <rect x="30" y="24" width="740" height="402" rx="8" fill="#0e0e0e" stroke="#1c1c1c" stroke-width="1"/>

  <!-- Title bar -->
  <rect x="30" y="24" width="740" height="34" rx="8" fill="#131313"/>
  <rect x="30" y="46" width="740" height="12" fill="#131313"/>
  <circle cx="54" cy="41" r="5" fill="#252525"/>
  <circle cx="72" cy="41" r="5" fill="#252525"/>
  <circle cx="90" cy="41" r="5" fill="#252525"/>
  <!-- URL bar -->
  <rect x="110" y="32" width="520" height="18" rx="9" fill="#181818"/>
  <circle cx="124" cy="41" r="4" fill="#222"/>
  <rect x="134" y="38" width="100" height="6" rx="2" fill="#222"/>

  <!-- App top nav -->
  <rect x="30" y="58" width="740" height="42" fill="#0b0b0b" stroke="#171717" stroke-width="0.5"/>
  <!-- Logo -->
  <rect x="48" y="72" width="72" height="14" rx="2" fill="#c9a84c" opacity="0.65"/>
  <!-- Nav links -->
  <rect x="188" y="75" width="48" height="8" rx="2" fill="#1e1e1e"/>
  <rect x="252" y="75" width="52" height="8" rx="2" fill="#c9a84c" opacity="0.35"/>
  <rect x="320" y="75" width="44" height="8" rx="2" fill="#1e1e1e"/>
  <rect x="380" y="75" width="56" height="8" rx="2" fill="#1e1e1e"/>
  <!-- User avatar -->
  <circle cx="742" cy="79" r="11" fill="#181818" stroke="#222" stroke-width="1"/>
  <circle cx="742" cy="75" r="4.5" fill="#222"/>
  <ellipse cx="742" cy="87" rx="7" ry="3.5" fill="#222"/>

  <!-- Page header -->
  <rect x="48" y="118" width="180" height="16" rx="3" fill="#1a1a1a"/>
  <rect x="48" y="140" width="120" height="8" rx="2" fill="#141414"/>

  <!-- 4 stat cards -->
  <rect x="48" y="162" width="148" height="76" rx="4" fill="#0b0b0b" stroke="#1a1a1a" stroke-width="1"/>
  <rect x="212" y="162" width="148" height="76" rx="4" fill="#0b0b0b" stroke="#1a1a1a" stroke-width="1"/>
  <rect x="376" y="162" width="148" height="76" rx="4" fill="#0b0b0b" stroke="#1a1a1a" stroke-width="1"/>
  <rect x="540" y="162" width="150" height="76" rx="4" fill="#0b0b0b" stroke="#c9a84c" stroke-width="1" opacity="1"/>

  <!-- Card 1 -->
  <rect x="60" y="176" width="44" height="26" rx="2" fill="#111"/>
  <rect x="60" y="176" width="44" height="26" rx="2" fill="#c9a84c" opacity="0.08"/>
  <rect x="110" y="180" width="18" height="18" rx="2" fill="#c9a84c" opacity="0.2"/>
  <rect x="60" y="210" width="76" height="6" rx="1" fill="#1a1a1a"/>
  <rect x="60" y="220" width="52" height="5" rx="1" fill="#c9a84c" opacity="0.22"/>

  <!-- Card 2 -->
  <rect x="224" y="176" width="44" height="26" rx="2" fill="#111"/>
  <rect x="274" y="180" width="18" height="18" rx="2" fill="#222"/>
  <rect x="224" y="210" width="70" height="6" rx="1" fill="#1a1a1a"/>
  <rect x="224" y="220" width="48" height="5" rx="1" fill="#1e1e1e"/>

  <!-- Card 3 -->
  <rect x="388" y="176" width="44" height="26" rx="2" fill="#111"/>
  <rect x="438" y="180" width="18" height="18" rx="2" fill="#222"/>
  <rect x="388" y="210" width="78" height="6" rx="1" fill="#1a1a1a"/>
  <rect x="388" y="220" width="50" height="5" rx="1" fill="#1e1e1e"/>

  <!-- Card 4 (highlighted) -->
  <rect x="552" y="176" width="44" height="26" rx="2" fill="#111"/>
  <rect x="552" y="176" width="44" height="26" rx="2" fill="#c9a84c" opacity="0.1"/>
  <rect x="602" y="180" width="18" height="18" rx="2" fill="#c9a84c" opacity="0.35"/>
  <rect x="552" y="210" width="82" height="6" rx="1" fill="#1a1a1a"/>
  <rect x="552" y="220" width="58" height="5" rx="1" fill="#c9a84c" opacity="0.28"/>

  <!-- Table header -->
  <rect x="48" y="254" width="664" height="30" rx="4" fill="#0d0d0d" stroke="#1a1a1a" stroke-width="1"/>
  <rect x="60" y="264" width="74" height="7" rx="1" fill="#c9a84c" opacity="0.38"/>
  <rect x="192" y="264" width="56" height="7" rx="1" fill="#1e1e1e"/>
  <rect x="316" y="264" width="64" height="7" rx="1" fill="#1e1e1e"/>
  <rect x="444" y="264" width="52" height="7" rx="1" fill="#1e1e1e"/>
  <rect x="568" y="264" width="62" height="7" rx="1" fill="#1e1e1e"/>

  <!-- Table row 1 -->
  <rect x="48" y="288" width="664" height="28" fill="#090909"/>
  <circle cx="68" cy="302" r="8" fill="#161616"/>
  <rect x="84" y="297" width="76" height="7" rx="1" fill="#1a1a1a"/>
  <rect x="192" y="297" width="52" height="7" rx="1" fill="#222"/>
  <rect x="316" y="297" width="62" height="7" rx="1" fill="#222"/>
  <rect x="444" y="297" width="48" height="7" rx="1" fill="#222"/>
  <rect x="568" y="295" width="54" height="11" rx="5" fill="#c9a84c" opacity="0.18"/>

  <!-- Table row 2 -->
  <rect x="48" y="320" width="664" height="28" fill="#0c0c0c"/>
  <circle cx="68" cy="334" r="8" fill="#161616"/>
  <rect x="84" y="329" width="64" height="7" rx="1" fill="#1a1a1a"/>
  <rect x="192" y="329" width="58" height="7" rx="1" fill="#222"/>
  <rect x="316" y="329" width="52" height="7" rx="1" fill="#222"/>
  <rect x="444" y="329" width="56" height="7" rx="1" fill="#222"/>
  <rect x="568" y="327" width="54" height="11" rx="5" fill="#1a1a1a"/>

  <!-- Table row 3 -->
  <rect x="48" y="352" width="664" height="28" fill="#090909"/>
  <circle cx="68" cy="366" r="8" fill="#161616"/>
  <rect x="84" y="361" width="88" height="7" rx="1" fill="#1a1a1a"/>
  <rect x="192" y="361" width="46" height="7" rx="1" fill="#222"/>
  <rect x="316" y="361" width="68" height="7" rx="1" fill="#222"/>
  <rect x="444" y="361" width="44" height="7" rx="1" fill="#222"/>
  <rect x="568" y="359" width="54" height="11" rx="5" fill="#c9a84c" opacity="0.12"/>

  <!-- Table row 4 -->
  <rect x="48" y="384" width="664" height="28" fill="#0c0c0c"/>
  <circle cx="68" cy="398" r="8" fill="#161616"/>
  <rect x="84" y="393" width="70" height="7" rx="1" fill="#1a1a1a"/>
  <rect x="192" y="393" width="60" height="7" rx="1" fill="#222"/>
  <rect x="316" y="393" width="55" height="7" rx="1" fill="#222"/>
  <rect x="444" y="393" width="50" height="7" rx="1" fill="#222"/>
  <rect x="568" y="391" width="54" height="11" rx="5" fill="#1a1a1a"/>

  <!-- Pagination -->
  <rect x="48" y="418" width="664" height="4" fill="#090909"/>
  <rect x="616" y="413" width="18" height="13" rx="2" fill="#161616"/>
  <rect x="640" y="413" width="18" height="13" rx="2" fill="#c9a84c" opacity="0.28"/>
  <rect x="664" y="413" width="18" height="13" rx="2" fill="#161616"/>
  <rect x="688" y="413" width="18" height="13" rx="2" fill="#161616"/>
</svg>
