<svg xmlns="http://www.w3.org/2000/svg" viewBox="0 0 800 450">
  <defs>
    <linearGradient id="ter-area" x1="0" y1="0" x2="0" y2="1">
      <stop offset="0%" stop-color="#c9a84c" stop-opacity="0.25"/>
      <stop offset="100%" stop-color="#c9a84c" stop-opacity="0"/>
    </linearGradient>
  </defs>

  <!-- Background -->
  <rect width="800" height="450" fill="#0a0a0a"/>

  <!-- Window frame -->
  <rect x="40" y="30" width="720" height="390" rx="6" fill="#101010" stroke="#1c1c1c" stroke-width="1"/>

  <!-- Title bar -->
  <rect x="40" y="30" width="720" height="32" rx="6" fill="#141414"/>
  <rect x="40" y="50" width="720" height="12" fill="#141414"/>
  <circle cx="62" cy="46" r="5" fill="#2a2a2a"/>
  <circle cx="80" cy="46" r="5" fill="#2a2a2a"/>
  <circle cx="98" cy="46" r="5" fill="#2a2a2a"/>
  <rect x="330" y="38" width="140" height="16" rx="2" fill="#1a1a1a"/>
  <rect x="344" y="44" width="60" height="5" rx="1" fill="#2a2a2a"/>

  <!-- Sidebar -->
  <rect x="40" y="62" width="148" height="358" fill="#0d0d0d" stroke="#181818" stroke-width="0.5"/>

  <!-- Sidebar nav -->
  <rect x="56" y="84" width="8" height="8" rx="1" fill="#c9a84c" opacity="0.8"/>
  <rect x="70" y="86" width="72" height="5" rx="1" fill="#c9a84c" opacity="0.5"/>

  <rect x="56" y="108" width="8" height="8" rx="1" fill="#222"/>
  <rect x="70" y="110" width="60" height="5" rx="1" fill="#222"/>

  <rect x="56" y="132" width="8" height="8" rx="1" fill="#222"/>
  <rect x="70" y="134" width="76" height="5" rx="1" fill="#222"/>

  <rect x="56" y="156" width="8" height="8" rx="1" fill="#222"/>
  <rect x="70" y="158" width="55" height="5" rx="1" fill="#222"/>

  <line x1="56" y1="188" x2="168" y2="188" stroke="#1a1a1a" stroke-width="1"/>

  <!-- Student list -->
  <rect x="56" y="200" width="112" height="26" rx="2" fill="#161616"/>
  <circle cx="68" cy="213" r="6" fill="#1e1e1e"/>
  <rect x="80" y="209" width="55" height="5" rx="1" fill="#1e1e1e"/>
  <rect x="80" y="218" width="38" height="4" rx="1" fill="#c9a84c" opacity="0.3"/>

  <rect x="56" y="232" width="112" height="26" rx="2" fill="#111"/>
  <circle cx="68" cy="245" r="6" fill="#1a1a1a"/>
  <rect x="80" y="241" width="50" height="5" rx="1" fill="#1e1e1e"/>
  <rect x="80" y="250" width="42" height="4" rx="1" fill="#1e1e1e"/>

  <rect x="56" y="264" width="112" height="26" rx="2" fill="#111"/>
  <circle cx="68" cy="277" r="6" fill="#1a1a1a"/>
  <rect x="80" y="273" width="60" height="5" rx="1" fill="#1e1e1e"/>
  <rect x="80" y="282" width="35" height="4" rx="1" fill="#1e1e1e"/>

  <rect x="56" y="296" width="112" height="26" rx="2" fill="#111"/>
  <circle cx="68" cy="309" r="6" fill="#1a1a1a"/>
  <rect x="80" y="305" width="44" height="5" rx="1" fill="#1e1e1e"/>
  <rect x="80" y="314" width="50" height="4" rx="1" fill="#1e1e1e"/>

  <!-- Main area -->
  <!-- Page title -->
  <rect x="210" y="76" width="160" height="14" rx="3" fill="#1e1e1e"/>
  <rect x="210" y="96" width="100" height="8" rx="2" fill="#161616"/>

  <!-- Stat cards -->
  <rect x="210" y="120" width="148" height="68" rx="4" fill="#0d0d0d" stroke="#1a1a1a" stroke-width="1"/>
  <rect x="374" y="120" width="148" height="68" rx="4" fill="#0d0d0d" stroke="#1a1a1a" stroke-width="1"/>
  <rect x="538" y="120" width="152" height="68" rx="4" fill="#0d0d0d" stroke="#c9a84c" stroke-width="1" opacity="1"/>

  <rect x="222" y="134" width="50" height="20" rx="2" fill="#141414"/>
  <rect x="222" y="134" width="50" height="20" rx="2" fill="#c9a84c" opacity="0.1"/>
  <rect x="278" y="138" width="16" height="12" rx="1" fill="#c9a84c" opacity="0.25"/>
  <rect x="222" y="162" width="78" height="6" rx="1" fill="#1e1e1e"/>
  <rect x="222" y="172" width="52" height="5" rx="1" fill="#c9a84c" opacity="0.2"/>

  <rect x="386" y="134" width="50" height="20" rx="2" fill="#141414"/>
  <rect x="442" y="138" width="16" height="12" rx="1" fill="#222"/>
  <rect x="386" y="162" width="70" height="6" rx="1" fill="#1e1e1e"/>
  <rect x="386" y="172" width="45" height="5" rx="1" fill="#1e1e1e"/>

  <rect x="550" y="134" width="50" height="20" rx="2" fill="#141414"/>
  <rect x="550" y="134" width="50" height="20" rx="2" fill="#c9a84c" opacity="0.08"/>
  <rect x="606" y="138" width="16" height="12" rx="1" fill="#c9a84c" opacity="0.4"/>
  <rect x="550" y="162" width="80" height="6" rx="1" fill="#1e1e1e"/>
  <rect x="550" y="172" width="55" height="5" rx="1" fill="#c9a84c" opacity="0.3"/>

  <!-- Chart -->
  <rect x="210" y="204" width="480" height="168" rx="4" fill="#0b0b0b" stroke="#181818" stroke-width="1"/>

  <!-- Chart grid lines -->
  <line x1="230" y1="344" x2="668" y2="344" stroke="#161616" stroke-width="1"/>
  <line x1="230" y1="316" x2="668" y2="316" stroke="#161616" stroke-width="1"/>
  <line x1="230" y1="288" x2="668" y2="288" stroke="#161616" stroke-width="1"/>
  <line x1="230" y1="260" x2="668" y2="260" stroke="#161616" stroke-width="1"/>
  <line x1="230" y1="232" x2="668" y2="232" stroke="#161616" stroke-width="1"/>

  <!-- Area fill -->
  <polygon
    points="230,344 230,334 280,318 340,326 390,298 450,280 500,294 550,265 600,252 650,238 668,244 668,344"
    fill="url(#ter-area)"/>

  <!-- Main line -->
  <polyline
    points="230,334 280,318 340,326 390,298 450,280 500,294 550,265 600,252 650,238 668,244"
    fill="none" stroke="#c9a84c" stroke-width="2" stroke-linejoin="round" stroke-linecap="round"/>

  <!-- Secondary line -->
  <polyline
    points="230,342 280,336 340,338 390,330 450,320 500,326 550,314 600,308 650,300 668,304"
    fill="none" stroke="#2e2e2e" stroke-width="1.5" stroke-linejoin="round" stroke-linecap="round" stroke-dasharray="4,3"/>

  <!-- Data points -->
  <circle cx="390" cy="298" r="3" fill="#0b0b0b" stroke="#c9a84c" stroke-width="1.5"/>
  <circle cx="550" cy="265" r="3" fill="#0b0b0b" stroke="#c9a84c" stroke-width="1.5"/>
  <circle cx="650" cy="238" r="3.5" fill="#c9a84c"/>
  <circle cx="650" cy="238" r="7" fill="none" stroke="#c9a84c" stroke-width="1" opacity="0.35"/>

  <!-- X-axis ticks -->
  <rect x="256" y="350" width="26" height="5" rx="1" fill="#181818"/>
  <rect x="340" y="350" width="26" height="5" rx="1" fill="#181818"/>
  <rect x="424" y="350" width="26" height="5" rx="1" fill="#181818"/>
  <rect x="508" y="350" width="26" height="5" rx="1" fill="#181818"/>
  <rect x="592" y="350" width="26" height="5" rx="1" fill="#181818"/>
  <rect x="650" y="350" width="20" height="5" rx="1" fill="#1e1e1e"/>

  <!-- Legend -->
  <line x1="222" y1="384" x2="240" y2="384" stroke="#c9a84c" stroke-width="2"/>
  <rect x="246" y="380" width="60" height="6" rx="1" fill="#1e1e1e"/>
  <line x1="322" y1="384" x2="340" y2="384" stroke="#2e2e2e" stroke-width="2" stroke-dasharray="3,2"/>
  <rect x="346" y="380" width="50" height="6" rx="1" fill="#1e1e1e"/>
</svg>
